PathFileType	4	(X/Y/Z)	/Users/mathieubourgeois/Desktop/Analyse/Traitement/Sujet_07/Data/Transformed_Sujet_07_velo_100.trc
DataRate	CameraRate	NumFrames	NumMarkers	Units	OrigDataRate	OrigDataStartFrame	OrigNumFrames
120.000000	120.000000	4	36	mm	120.000000	233	1864
Frame#	Time	RKNE			RKNI			LKNI			LKNE			LANI			LANE			LTOE			LHEE			RHEE			RTOE			RANE			RANI			RFWT			LFWT			RBWT			LBWT			T10			C7			RSHO			LSHO			LWRA			LWRB			RWRA			RWRB			RCAR			LCAR			LHUM			LRAD			RRAD			RHUM			STRN			RFHD			LFHD			RBHD			LBHD			CLAV			
		X1	Y1	Z1	X2	Y2	Z2	X3	Y3	Z3	X4	Y4	Z4	X5	Y5	Z5	X6	Y6	Z6	X7	Y7	Z7	X8	Y8	Z8	X9	Y9	Z9	X10	Y10	Z10	X11	Y11	Z11	X12	Y12	Z12	X13	Y13	Z13	X14	Y14	Z14	X15	Y15	Z15	X16	Y16	Z16	X17	Y17	Z17	X18	Y18	Z18	X19	Y19	Z19	X20	Y20	Z20	X21	Y21	Z21	X22	Y22	Z22	X23	Y23	Z23	X24	Y24	Z24	X25	Y25	Z25	X26	Y26	Z26	X27	Y27	Z27	X28	Y28	Z28	X29	Y29	Z29	X30	Y30	Z30	X31	Y31	Z31	X32	Y32	Z32	X33	Y33	Z33	X34	Y34	Z34	X35	Y35	Z35	X36	Y36	Z36	

234	1.941666666666667	-91.25653839111331	826.1087646484375	230.1824645996093	-92.98679351806642	768.3609008789062	125.7828826904296	-101.1866226196289	764.7709350585938	-25.81173324584967	-83.09555053710936	819.9880981445312	-129.5752716064454	-115.6889495849609	381.2627258300781	-45.84695053100589	-124.7075119018555	370.1209716796875	-135.6984252929688	77.37818908691408	315.5885925292969	-87.72841644287109	-187.2202301025391	353.4825744628906	-102.7179870605469	-445.0051879882812	515.2191162109375	160.0826110839843	-261.1112976074219	322.8284301757812	177.3283386230468	-387.7431030273438	498.0711364746094	202.8504791259765	-360.5217590332031	495.9795532226562	117.0445480346679	-284.2384338378906	1213.97607421875	160.6066589355468	-293.4076843261719	1222.862548828125	-53.92478561401379	-437.0458679199219	1297.930053710938	121.7221527099608	-441.9916381835938	1300.806274414062	9.877053260803089	-174.2086639404297	1498.226684570312	58.68735885620106	72.32122802734374	1456.417602539062	70.6720886230468	68.64702606201169	1418.899047851562	203.9803161621093	95.45491027832031	1442.3525390625	-52.31734085083015	316.8065795898438	931.0318603515625	-105.8079986572266	275.7364196777344	888.9246215820312	-155.580062866211	320.5474548339843	939.9706420898438	253.5258026123047	280.4322814941406	898.62451171875	301.9773254394531	369.4704284667968	921.8992919921875	342.8104248046875	371.7815856933594	915.3900146484375	-194.5412750244141	95.26260375976564	1123.407104492188	-128.7889556884766	157.181396484375	1140.523315429688	-145.2320709228516	114.479736328125	1119.678833007812	294.6655273437499	69.23202514648435	1092.840698242188	250.3419494628906	-126.951789855957	1268.136596679688	47.35252380371085	278.5107727050781	1305.35791015625	135.9889068603515	275.0951232910156	1302.641845703125	2.354950904846145	233.4574890136718	1449.154663085938	150.4970092773437	226.1875457763672	1462.96875	6.962851047515807	36.01861953735351	1324.843017578125	67.78941345214835	
235	1.95	-82.62569427490237	836.4471435546875	230.5525207519531	-84.51262664794923	778.470947265625	125.9971923828124	-113.6057815551758	751.5065307617188	-26.97345924377447	-92.70317077636717	807.17236328125	-129.6456451416016	-119.4692611694336	368.0849914550781	-46.50046157836918	-128.5449676513672	356.928466796875	-136.3345336914063	74.14537811279298	300.64892578125	-87.72368621826172	-190.8654479980469	340.774169921875	-103.3475646972657	-440.8841552734375	530.9611206054688	161.858901977539	-257.4222412109375	337.9110717773438	177.7907104492187	-383.3463134765625	513.3914794921875	204.1172485351562	-356.6862182617188	511.1266479492188	118.1643905639648	-284.8453979492188	1214.610961914062	160.6532897949218	-292.462158203125	1221.3388671875	-53.99089813232433	-437.6439208984375	1297.619018554688	119.9660415649413	-441.6910705566406	1299.577514648438	8.083350181579457	-174.8068084716797	1498.00390625	58.3571205139159	71.72279357910155	1456.30712890625	72.72615051269524	67.51737976074216	1418.95556640625	205.8914184570312	95.27842712402344	1442.12939453125	-50.28368759155281	316.6028442382812	931.0223999023438	-105.7638473510742	275.5400695800781	889.0457763671875	-155.5439605712891	320.2240905761718	940.1962280273438	253.529296875	280.1684875488281	898.7496337890625	301.9786376953125	369.2959594726562	922.055908203125	342.7232666015625	371.4751892089844	915.5508422851562	-194.6309051513672	94.95626068115236	1123.396850585938	-127.8010253906251	156.8886871337891	1140.543090820312	-144.25146484375	113.7697601318359	1119.551025390625	295.2851867675781	68.72849273681638	1092.826171875	250.7614440917968	-127.2535247802734	1267.857666015625	48.44022750854483	278.1475830078125	1305.537109375	138.3710327148437	274.5134582519531	1302.584716796875	4.717127323150589	232.8635559082031	1449.252319335938	152.7244110107421	225.3547821044922	1462.881469726562	9.172132492065369	35.53883361816406	1324.796875	70.07177734374991	
236	1.958333333333333	-74.43304443359378	846.911865234375	231.0392303466796	-76.3695755004883	787.7626953125	126.1873397827148	-122.3342895507812	739.3169555664062	-26.34466361999518	-102.6849517822265	795.0697631835938	-129.8835144042969	-124.1752166748047	355.7525329589844	-47.07909774780277	-133.4400329589843	344.5808715820312	-136.8705596923829	68.11038970947267	285.2097473144531	-88.80751800537109	-195.5836334228516	329.08447265625	-103.6256942749024	-436.2200622558594	545.6829223632812	163.4519805908202	-252.286376953125	352.8345336914062	178.4411163330078	-378.3372192382812	527.98974609375	205.2073364257812	-352.0817565917969	525.5560302734375	119.1170272827148	-285.1691589355469	1215.263549804688	161.2371368408202	-291.4817199707031	1219.801147460938	-53.96453857421886	-438.1127624511719	1297.355834960938	118.1565704345702	-441.2242126464844	1298.37548828125	6.167335033416614	-175.3817901611328	1497.850952148438	57.94502639770496	71.1476364135742	1456.259643554688	74.82559204101555	66.40954589843747	1419.074096679688	207.8962860107421	95.18731689453125	1442.004760742188	-48.22783660888679	316.3460388183594	931.0452270507812	-105.7184600830078	275.3981628417969	889.3327026367188	-155.287338256836	319.8786315917968	940.4281616210938	253.5599822998047	279.9087219238281	898.8754272460938	302.0072937011719	369.1087341308593	922.1660766601562	342.6568908691406	371.1646423339844	915.7081298828125	-194.6971282958984	94.69876098632814	1123.44921875	-126.8743591308594	156.6461791992188	1140.622802734375	-143.2746734619141	113.2041702270507	1119.484741210938	295.9042053222656	68.31942749023435	1092.881225585938	251.1658630371093	-127.4991607666016	1267.632080078125	49.41550827026358	277.8138427734375	1305.76953125	140.8002624511718	274.0368041992188	1302.593627929688	7.142791748046829	232.3608093261718	1449.40234375	154.9823150634765	224.625732421875	1462.832275390625	11.39352989196771	35.12215042114257	1324.77880859375	72.34676361083976	
237	1.966666666666667	-66.72942352294925	857.4158935546875	231.6317596435546	-70.12757873535158	798.5205078125	126.4312057495117	-132.4634246826172	727.9085083007812	-26.0994949340821	-112.8189697265625	783.9195556640625	-130.0990600585938	-129.7373199462891	344.4112548828125	-47.48373413085941	-139.302490234375	333.2021484375	-137.2828979492188	61.65060043334962	270.331787109375	-89.46603393554688	-201.2056121826172	318.4605712890625	-103.7170944213868	-431.1296081542969	559.2029418945312	164.8054809570312	-245.6554870605469	367.5884094238281	179.1228332519531	-372.8427429199219	541.57177734375	206.1410827636718	-346.8737487792969	539.1484375	119.9287338256835	-285.5571594238281	1215.8994140625	161.3208770751952	-290.4809265136719	1218.368774414062	-53.72581481933604	-438.438232421875	1297.109008789062	116.2981719970702	-440.720947265625	1297.268676757812	4.2356557846068	-175.8152313232422	1497.791381835938	57.48669815063465	70.64518737792967	1456.330810546875	76.88294219970696	65.42401123046872	1419.231323242188	209.8652954101562	95.16701507568359	1442.017700195312	-46.22371673583991	316.0799255371094	931.1248168945312	-105.6526184082031	274.8056640625	889.16796875	-155.6184692382813	319.5653686523437	940.64404296875	253.6529846191406	279.6631469726562	898.9879760742188	302.0947265625	368.9401245117187	922.2600708007812	342.6631164550781	370.9020080566406	915.8553466796875	-194.7291870117188	94.53169250488283	1123.605590820312	-125.4500274658204	156.4051055908203	1140.908325195312	-142.5059967041016	112.7042846679687	1119.454711914062	296.6228027343749	67.97362518310544	1092.974731445312	251.7499084472656	-127.6282424926758	1267.50927734375	50.46282958984366	277.5477294921875	1306.04150390625	143.2283630371093	273.6095886230469	1302.644897460938	9.602330207824661	231.9556732177734	1449.656372070312	157.2440032958984	224.0126342773438	1462.840087890625	13.63233184814447	34.81074905395507	1324.906005859375	74.6530227661132	
